<?xml version="1.0" encoding="UTF-8"?>
<!DOCTYPE svg PUBLIC "-//W3C//DTD SVG 1.1//EN" "http://www.w3.org/Graphics/SVG/1.1/DTD/svg11.dtd">
<svg version="1.1" xmlns="http://www.w3.org/2000/svg" xmlns:xlink="http://www.w3.org/1999/xlink" x="0" y="0" width="625.26" height="795.576" viewBox="0, 0, 625.26, 795.576">
  <g id="layer1">
    <path d="M608.782,106.285 C612.929,110.166 612.832,112.985 611.482,117.984 C608.204,120.695 597.179,133.187 594.157,131.033 C589.754,127.885 584.264,115.355 582.434,109.407 C579.254,99.086 593.827,98.011 597.532,100.434 C600.727,102.517 605.414,103.126 608.782,106.285" fill="#D89D91" id="path6242"/>
    <path d="M608.782,106.285 C612.929,110.166 612.832,112.985 611.482,117.984 C608.204,120.695 597.179,133.187 594.157,131.033 C589.754,127.885 584.264,115.355 582.434,109.407 C579.254,99.086 593.827,98.011 597.532,100.434 C600.727,102.517 605.414,103.126 608.782,106.285 z" fill-opacity="0" stroke="#1A1919" stroke-width="2.126" stroke-linecap="round" stroke-linejoin="round" id="path6244"/>
    <path d="M595.777,113.237 C592.739,116.051 593.872,121.274 593.137,125.588 C592.162,131.302 591.862,140.597 585.382,141.385 C567.607,143.544 565.334,127.036 559.057,115.508 C556.439,108.521 548.654,98.274 544.882,95.933 C538.837,92.192 526.747,87.38 516.532,82.881 C504.434,81.737 488.647,85.212 479.939,82.712 C464.602,78.304 461.557,38.564 488.077,36.541 C497.024,35.855 500.902,37.712 512.054,38.837 C521.579,39.803 529.709,41.819 535.882,45.983 C539.302,48.287 545.864,53.057 550.732,58.133 C551.729,59.174 568.409,72.3 577.282,87.158 C582.277,83.201 585.224,84.245 589.304,86.122 C591.442,87.1 598.207,91.751 599.332,92.331 C603.022,94.24 610.469,97.51 612.719,100.658 C617.992,108.033 613.777,104.587 612.832,105.831 C608.437,111.614 605.399,105.059 600.232,104.033 C601.019,109.446 598.439,110.783 595.777,113.237" fill="#D89D91" id="path6246"/>
    <path d="M595.777,113.237 C592.739,116.051 593.872,121.274 593.137,125.588 C592.162,131.302 591.862,140.597 585.382,141.385 C567.607,143.544 565.334,127.036 559.057,115.508 C556.439,108.521 548.654,98.274 544.882,95.933 C538.837,92.192 526.747,87.38 516.532,82.881 C504.434,81.737 488.647,85.212 479.939,82.712 C464.602,78.304 461.557,38.564 488.077,36.541 C497.024,35.855 500.902,37.712 512.054,38.837 C521.579,39.803 529.709,41.819 535.882,45.983 C539.302,48.287 545.864,53.057 550.732,58.133 C551.729,59.174 568.409,72.3 577.282,87.158 C582.277,83.201 585.224,84.245 589.304,86.122 C591.442,87.1 598.207,91.751 599.332,92.331 C603.022,94.24 610.469,97.51 612.719,100.658 C617.992,108.033 613.777,104.587 612.832,105.831 C608.437,111.614 605.399,105.059 600.232,104.033 C601.019,109.446 598.439,110.783 595.777,113.237 z" fill-opacity="0" stroke="#1A1919" stroke-width="2.126" stroke-linecap="round" stroke-linejoin="round" id="path6248"/>
    <path d="M601.919,106.285 C605.654,111.714 611.684,116.318 614.069,113.931 C615.502,112.502 617.234,104.397 614.542,101.644 C612.622,99.683 608.932,99.089 606.307,98.633 C601.162,97.739 600.682,104.481 601.919,106.285" fill="#D89D91" id="path6250"/>
    <path d="M601.919,106.285 C605.654,111.714 611.684,116.318 614.069,113.931 C615.502,112.502 617.234,104.397 614.542,101.644 C612.622,99.683 608.932,99.089 606.307,98.633 C601.162,97.739 600.682,104.481 601.919,106.285 z" fill-opacity="0" stroke="#1A1919" stroke-width="2.126" stroke-linecap="round" stroke-linejoin="round" id="path6252"/>
    <path d="M606.082,114.385 C610.199,116.552 612.472,119.912 614.639,118.883 C617.369,117.586 619.109,111.142 615.097,107.045 C613.177,105.083 609.262,103.975 606.637,103.521 C601.499,102.625 597.532,109.881 606.082,114.385" fill="#D89D91" id="path6254"/>
    <path d="M606.082,114.385 C610.199,116.552 612.472,119.912 614.639,118.883 C617.369,117.586 619.109,111.142 615.097,107.045 C613.177,105.083 609.262,103.975 606.637,103.521 C601.499,102.625 597.532,109.881 606.082,114.385 z" fill-opacity="0" stroke="#1A1919" stroke-width="2.126" stroke-linecap="round" stroke-linejoin="round" id="path6256"/>
    <path d="M605.962,123.635 C611.092,124.856 614.924,127.015 617.632,124.373 C620.339,121.728 620.294,115.59 615.449,113.9 C612.862,112.998 606.442,108.832 603.884,109.589 C598.882,111.076 599.527,122.1 605.962,123.635" fill="#D89D91" id="path6258"/>
    <path d="M605.962,123.635 C611.092,124.856 614.924,127.015 617.632,124.373 C620.339,121.728 620.294,115.59 615.449,113.9 C612.862,112.998 606.442,108.832 603.884,109.589 C598.882,111.076 599.527,122.1 605.962,123.635 z" fill-opacity="0" stroke="#1A1919" stroke-width="2.126" stroke-linecap="round" stroke-linejoin="round" id="path6260"/>
    <path d="M408.872,181.919 C376.969,178.315 371.396,174.729 344.403,188.303 C330.107,195.49 300.86,204.713 289.059,218.108 C283.585,224.323 277.293,225.713 268.587,229.351 C256.757,234.302 241.313,246.743 233.033,253.208 C211.508,270.02 198.034,292.374 178.965,301.301 C171.883,304.611 154.805,312.579 147.277,314.627 C143.512,315.662 139.208,315.239 134.215,316.827 C125.195,319.696 119.47,323.846 115.325,330.48 C113.253,333.807 107.336,343.133 106.535,347.289 C105.485,352.728 109.97,357.364 116.591,359.678 C120.409,361.007 130.012,360.359 133.835,359.447 C144.608,356.868 145.8,343.342 154.027,338.132 C163.002,332.452 175.4,340.805 183.163,332.753 C190.886,324.748 199.814,318.752 211.508,313.452 C227.681,306.119 245.553,298.862 261.099,290.069 C282.997,277.688 288.932,265.347 310.511,255.592 C312.161,254.843 324.04,250.076 337.625,242.957 C359.517,231.479 379.322,221.957 381.784,220.433 C394.567,212.497 408.463,199.224 408.872,181.919" fill="#D89D91" id="path6262"/>
    <path d="M408.872,181.919 C376.969,178.315 371.396,174.729 344.403,188.303 C330.107,195.49 300.86,204.713 289.059,218.108 C283.585,224.323 277.293,225.713 268.587,229.351 C256.757,234.302 241.313,246.743 233.033,253.208 C211.508,270.02 198.034,292.374 178.965,301.301 C171.883,304.611 154.805,312.579 147.277,314.627 C143.512,315.662 139.208,315.239 134.215,316.827 C125.195,319.696 119.47,323.846 115.325,330.48 C113.253,333.807 107.336,343.133 106.535,347.289 C105.485,352.728 109.97,357.364 116.591,359.678 C120.409,361.007 130.012,360.359 133.835,359.447 C144.608,356.868 145.8,343.342 154.027,338.132 C163.002,332.452 175.4,340.805 183.163,332.753 C190.886,324.748 199.814,318.752 211.508,313.452 C227.681,306.119 245.553,298.862 261.099,290.069 C282.997,277.688 288.932,265.347 310.511,255.592 C312.161,254.843 324.04,250.076 337.625,242.957 C359.517,231.479 379.322,221.957 381.784,220.433 C394.567,212.497 408.463,199.224 408.872,181.919 z" fill-opacity="0" stroke="#1A1919" stroke-width="2.126" stroke-linecap="round" stroke-linejoin="round" id="path6264"/>
    <path d="M530.639,440.528 C523.724,438.073 510.817,420.521 512.669,410.86 C514.709,400.265 525.359,402.246 532.792,405.713 C537.442,407.882 539.137,414.319 542.962,417.721 C546.427,420.797 556.724,432.866 555.359,435.624 C552.899,440.549 535.372,442.208 530.639,440.528" fill="#D4D5D4" id="path6266"/>
    <path d="M530.639,440.528 C523.724,438.073 510.817,420.521 512.669,410.86 C514.709,400.265 525.359,402.246 532.792,405.713 C537.442,407.882 539.137,414.319 542.962,417.721 C546.427,420.797 556.724,432.866 555.359,435.624 C552.899,440.549 535.372,442.208 530.639,440.528 z" fill-opacity="0" stroke="#1A1919" stroke-width="2.126" stroke-linecap="round" stroke-linejoin="round" id="path6268"/>
    <path d="M513.277,389.783 C504.359,389.677 495.929,392.228 487.694,395.525 C483.269,397.299 477.172,398.378 473.362,401.405 C461.609,410.736 464.309,426.54 464.797,439.07 C465.014,444.671 469.402,460.926 469.754,466.502 C470.669,480.836 470.677,482.218 469.987,493.922 C469.829,496.54 469.987,509.069 472.259,522.14 C473.264,527.909 473.527,534.453 474.112,541.43 C476.639,571.383 488.122,601.126 506.474,594.439 C515.504,591.148 530.977,575.391 531.944,553.127 C532.237,546.435 533.519,534.01 534.014,522.833 C534.689,507.562 534.697,493.418 536.077,488.411 C539.594,475.655 540.974,455.465 542.279,447.098 C544.507,432.806 544.102,426.817 543.652,417.494 C543.239,408.962 540.254,412.16 539.834,400.775 C539.609,394.544 539.639,392.07 533.069,390.083 C527.114,388.282 519.479,389.853 513.277,389.783" fill="#D89D91" id="path6270"/>
    <path d="M513.277,389.783 C504.359,389.677 495.929,392.228 487.694,395.525 C483.269,397.299 477.172,398.378 473.362,401.405 C453.644,417.066 471.854,461.77 471.014,480.836 C478.244,472.577 477.164,453.023 481.342,447.789 C490.634,436.109 493.904,445.565 503.864,448.67 C513.209,451.592 521.174,441.293 529.432,442.35 C539.317,443.613 537.637,443.561 542.797,443.872 C544.559,436.858 544.012,424.861 543.644,417.48 C543.232,408.967 540.254,412.154 539.834,400.775 C539.609,394.544 539.639,392.07 533.069,390.083 C527.114,388.282 519.479,389.853 513.277,389.783" fill="#CC8A80" id="path6272"/>
    <path d="M513.277,389.783 C504.359,389.677 495.929,392.228 487.694,395.525 C483.269,397.299 477.172,398.378 473.362,401.405 C461.609,410.736 464.309,426.54 464.797,439.07 C465.014,444.671 469.402,460.926 469.754,466.502 C470.669,480.836 470.677,482.218 469.987,493.922 C469.829,496.54 469.987,509.069 472.259,522.14 C473.264,527.909 473.527,534.453 474.112,541.43 C476.639,571.383 488.122,601.126 506.474,594.439 C515.504,591.148 530.977,575.391 531.944,553.127 C532.237,546.435 533.519,534.01 534.014,522.833 C534.689,507.562 534.697,493.418 536.077,488.411 C539.594,475.655 540.974,455.465 542.279,447.098 C544.507,432.806 544.102,426.817 543.652,417.494 C543.239,408.962 540.254,412.16 539.834,400.775 C539.609,394.544 539.639,392.07 533.069,390.083 C527.114,388.282 519.479,389.853 513.277,389.783 z" fill-opacity="0" stroke="#1A1919" stroke-width="2.126" stroke-linecap="round" stroke-linejoin="round" id="path6274"/>
    <path d="M418.226,235.358 C410.027,238.295 406.852,220.007 399.986,225.533 C393.293,230.918 393.389,263.112 390.983,271.433 C387.641,283.001 360.604,298.293 358.784,310.182 C357.007,321.776 359.474,318.08 358.597,326 C358.394,327.84 352.878,335.002 352.941,337.775 C353.157,347.666 363.14,367.945 364.643,378.83 C365.35,383.929 361.991,384.533 362.576,389.15 C362.74,390.47 369.816,394.877 376.519,395.351 C389.28,396.254 403.956,388.169 406.625,388.306 C414.598,388.715 417.762,405.534 424.642,400.397 C440.887,394.813 445.192,394.829 455.527,380.888 C456.082,388.991 452.999,399.839 454.837,408.083 C455.954,413.096 462.442,420.302 465.337,423.816 C467.512,417.091 469.162,410.96 471.419,408.634 C481.949,408.471 485.129,413.976 490.634,417.721 C507.847,429.428 521.557,442.73 532.169,427.163 C534.869,432.74 552.412,428.927 554.669,432.183 C549.157,421.855 550.124,415.448 549.157,404.642 C547.454,385.54 552.359,372.538 554.669,366.083 C557.564,357.983 551.084,328.315 549.847,319.271 C549.134,314.066 545.129,297.413 542.962,292.419 C538.424,281.972 530.849,259.22 522.089,252.52 C499.432,235.191 492.442,219.993 498.622,222.759 C507.922,226.91 483.314,242.675 473.812,239.281 C459.779,234.266 441.547,224.774 426.224,230.864 C423.307,232.025 421.117,234.324 418.226,235.358" fill="#4168A3" id="path6276"/>
    <path d="M418.226,235.358 C410.027,238.295 406.852,220.007 399.986,225.533 C393.293,230.918 393.389,263.112 390.983,271.433 C387.641,283.001 360.604,298.293 358.784,310.182 C357.007,321.776 359.474,318.08 358.597,326 C358.394,327.84 352.878,335.002 352.941,337.775 C353.157,347.666 363.14,367.945 364.643,378.83 C365.35,383.929 361.991,384.533 362.576,389.15 C362.74,390.47 369.816,394.877 376.519,395.351 C389.28,396.254 403.956,388.169 406.625,388.306 C414.598,388.715 417.762,405.534 424.642,400.397 C440.887,394.813 445.192,394.829 455.527,380.888 C456.082,388.991 452.999,399.839 454.837,408.083 C455.954,413.096 462.442,420.302 465.337,423.816 C467.512,417.091 469.162,410.96 471.419,408.634 C481.949,408.471 485.129,413.976 490.634,417.721 C507.847,429.428 521.557,442.73 532.169,427.163 C534.869,432.74 552.412,428.927 554.669,432.183 C549.157,421.855 550.124,415.448 549.157,404.642 C547.454,385.54 552.359,372.538 554.669,366.083 C557.564,357.983 551.084,328.315 549.847,319.271 C549.134,314.066 545.129,297.413 542.962,292.419 C538.424,281.972 530.849,259.22 522.089,252.52 C499.432,235.191 492.442,219.993 498.622,222.759 C507.922,226.91 483.314,242.675 473.812,239.281 C459.779,234.266 441.547,224.774 426.224,230.864 C423.307,232.025 421.117,234.324 418.226,235.358 z" fill-opacity="0" stroke="#1A1919" stroke-width="2.126" stroke-linecap="round" stroke-linejoin="round" id="path6278"/>
    <path d="M418.226,235.358 C410.027,238.295 403.25,220.007 396.384,225.533 C389.691,230.918 396.089,261.754 393.684,270.083 C390.944,279.56 370.757,288.152 365.84,296.55 C360.448,305.75 358.299,314.432 358.84,325.069 C362.898,325.457 365.624,319.007 367.316,316.16 C369.418,312.635 372.556,309.663 374.48,305.929 C377.152,300.751 381.122,293.399 387.43,291.715 C390.794,290.813 392.46,293.157 395.376,293.948 C398.132,294.697 399.793,293.231 402.59,293.289 C408.346,293.41 412.294,299.438 417.311,301.618 C424.139,304.59 433.837,300.988 440.077,306.272 C444.982,310.422 441.937,317.162 444.629,322.169 C447.727,327.935 456.457,328.628 458.969,335.45 C464.227,349.741 458.729,366.131 456.172,380.538 C455.107,386.56 452.804,400.679 454.102,412.582 C455.062,421.328 458.249,428.879 463.829,431.115 C464.834,426.453 466.792,414.68 470.504,409.547 C472.252,407.137 473.782,407.372 476.887,408.329 C471.802,402.897 464.437,396.816 463.019,388.896 C461.992,383.19 462.532,374.342 469.027,371.932 C472.012,370.822 473.429,372.338 474.457,368.828 C476.924,360.377 471.674,351.618 475.897,343.052 C481.102,332.478 491.482,338.031 498.667,330.103 C506.384,321.586 498.374,283.088 494.564,273.29 C485.092,248.931 455.594,219.189 426.224,230.864 C423.307,232.025 421.117,234.324 418.226,235.358" fill="#36578D" id="path6280"/>
    <path d="M418.226,235.358 C408.686,238.772 406.487,217.599 399.986,222.833 C393.293,228.218 394.739,260.411 392.334,268.733 C388.991,280.3 360.604,298.293 358.784,310.182 C357.007,321.776 359.474,318.08 358.597,326 C358.394,327.84 352.878,335.002 352.941,337.775 C353.157,347.666 363.14,367.945 364.643,378.83 C365.35,383.929 361.991,384.533 362.576,389.15 C362.74,390.47 369.816,394.877 376.519,395.351 C389.28,396.254 403.956,388.169 406.625,388.306 C414.598,388.715 417.762,405.534 424.642,400.397 C440.887,394.813 445.192,394.829 455.527,380.888 C456.082,388.991 452.879,408.281 454.717,416.526 C455.834,421.538 460.927,427.898 463.829,431.415 C465.997,424.69 469.162,410.649 471.419,408.329 C481.949,408.165 485.129,413.976 490.634,417.721 C507.847,429.428 521.557,442.73 532.169,427.163 C534.869,432.74 552.412,428.927 554.669,432.183 C549.157,421.855 550.124,415.448 549.157,404.642 C547.454,385.54 552.359,372.538 554.669,366.083 C557.564,357.983 551.084,328.315 549.847,319.271 C549.134,314.066 545.129,297.413 542.962,292.419 C538.424,281.972 530.849,259.22 522.089,252.52 C499.432,235.191 492.442,219.993 498.622,222.759 C507.922,226.91 483.314,242.675 473.812,239.281 C459.779,234.266 441.547,224.774 426.224,230.864 C423.307,232.025 421.117,234.324 418.226,235.358 z" fill-opacity="0" stroke="#1A1919" stroke-width="2.126" stroke-linecap="round" stroke-linejoin="round" id="path6282"/>
    <path d="M427.349,399.464 C420.817,407.664 418.142,417.338 410.205,419.93 C384.89,428.201 378.465,412.932 372.313,391.095 C367.472,373.912 356.68,345.264 366,329.712 C371.931,319.82 376.709,319.208 386.897,314.214 C394.76,310.364 409.636,307.775 417.425,311.116 C428.249,315.761 438.007,332.17 442.867,343.977 C448.289,357.134 448.289,365.915 444.757,374.985 C441.907,382.294 433.769,391.414 427.349,399.464" fill="#D89D91" id="path6284"/>
    <path d="M427.499,399.548 C424.574,404.294 421.634,411.224 417.825,404.761 C428.669,394.319 439.049,375.175 438.997,363.331 C438.922,345.422 434.587,328.346 419.376,319.956 C406.509,312.863 382.704,316.17 372.902,330.282 C366.913,338.904 369.655,358.943 371.843,369.506 C373.297,376.517 376.503,386.584 374.968,394.319 C374.121,398.591 377.242,396.403 373.244,396.722 C371.87,376.76 353.482,350.609 366,329.712 C371.931,319.82 376.709,319.208 386.897,314.214 C394.76,310.364 409.636,307.775 417.425,311.116 C428.249,315.761 438.007,332.17 442.867,343.977 C448.289,357.134 448.289,365.915 444.757,374.985 C441.337,383.75 434.144,390.465 428.624,397.866 C428.249,398.367 427.874,398.942 427.499,399.548" fill="#CC8A80" id="path6286"/>
    <path d="M427.349,399.464 C420.817,407.664 418.142,417.338 410.205,419.93 C384.89,428.201 378.465,412.932 372.313,391.095 C367.472,373.912 356.68,345.264 366,329.712 C371.931,319.82 376.709,319.208 386.897,314.214 C394.76,310.364 409.636,307.775 417.425,311.116 C428.249,315.761 438.007,332.17 442.867,343.977 C448.289,357.134 448.289,365.915 444.757,374.985 C441.907,382.294 433.769,391.414 427.349,399.464 z M385.294,363.331 C386.514,354.434 396.51,346.814 404.505,347.703 C417.652,349.161 419.945,360.541 423.374,372.501" fill-opacity="0" stroke="#1A1919" stroke-width="2.126" stroke-linecap="round" stroke-linejoin="round" id="path6288"/>
    <path d="M373.418,393.8 C380.711,388.334 388.735,376.984 401.304,378.83 C410.234,380.137 425.234,389.972 428.152,399.479 C426.607,405.671 426.209,410.427 426.089,420.133 C425.692,453.065 415.893,449.615 423.502,474.357 C415.893,481.112 380.645,530.119 380.645,530.119 C374.351,464.396 366,439.078 365.714,424.729 C365.482,413.57 366.257,406.926 373.418,393.8" fill="#4168A3" id="path6290"/>
    <path d="M373.418,393.8 C380.711,388.334 388.735,376.984 401.304,378.83 C410.234,380.137 425.234,389.972 428.152,399.479 C426.607,405.671 426.209,410.427 426.089,420.133 C425.692,453.065 415.893,449.615 423.502,474.357 C415.893,481.112 380.645,530.119 380.645,530.119 C374.351,464.396 366,439.078 365.714,424.729 C365.482,413.57 366.257,406.926 373.418,393.8 z" fill-opacity="0" stroke="#1A1919" stroke-width="2.126" stroke-linecap="round" stroke-linejoin="round" id="path6292"/>
    <path d="M510.172,687.243 C513.614,675.911 512.812,662.951 515.422,655.716 C520.552,641.509 527.377,623.195 530.572,598.568 C532.897,580.617 534.562,558.107 532.634,540.737 C522.997,564.833 489.262,575.164 474.112,541.43 C472.739,575.164 474.794,576.701 474.802,597.882 C474.802,620.922 479.639,629.768 477.554,651.587 C476.939,658.036 471.149,661.715 469.987,668.111 C466.777,685.721 462.554,703.601 461.969,721.421 C461.542,734.388 447.172,755.966 464.752,763.451 C479.654,769.788 483.427,747.078 488.804,738.348 C490.664,735.333 493.229,734.118 495.382,731.643 C498.494,728.073 500.152,722.193 501.667,717.806 C505.132,707.793 507.089,697.361 510.172,687.243" fill="#4168A3" id="path6294"/>
    <path d="M477.209,673.961 C477.637,670.863 483.389,663.098 484.237,659.787 C487.222,648.101 485.969,637.096 484.432,624.392 C482.084,604.911 486.322,580.643 484.432,563.46 C483.382,553.897 478.642,551.518 474.112,541.43 C472.739,575.164 474.794,576.701 474.802,597.882 C474.802,620.922 479.639,629.768 477.554,651.587 C476.939,658.036 471.157,661.709 469.987,668.111 C468.554,675.956 466.634,683.193 466.934,691.173 C467.024,693.641 466.057,694.983 465.794,696.776 C465.187,700.931 468.269,704.966 472.357,703.053 C474.997,701.823 477.209,697.458 477.892,694.773 C479.617,687.971 476.272,680.786 477.209,673.961" fill="#36578D" id="path6296"/>
    <path d="M455.527,380.888 C461.204,369.01 466.919,344.231 456.082,331.58 M436.934,388.633 C447.779,384.503 453.787,373.155 455.527,367.979 C457.349,362.555 456.554,351.557 456.554,345.781 M480.224,409.847 C474.029,405.028 464.174,395.255 462.367,388.622 M548.879,394.971 C549.712,385.194 536.107,350.387 525.982,350.408" fill-opacity="0" stroke="#1A1919" stroke-width="2.126" stroke-linecap="round" stroke-linejoin="round" id="path6298"/>
    <path d="M429.742,276.991 C419.402,259.146 393.552,259.367 381.344,242.72 C371.166,228.834 362.069,214.754 356.986,198.014 C350.984,178.262 350.389,171.454 353.184,163.881 C354.872,159.314 355.051,143.829 356.785,140.035 C359.929,133.148 354.375,123.155 357.065,117.849 C363.979,104.204 369.874,106.57 378.153,95.891 C388.906,82.032 369.115,52.823 382.436,42.835 C396.204,32.507 410.105,21.957 422.482,23.935 C429.172,25 433.154,24.918 440.932,27.985 C447.787,30.685 457.019,29.815 460.732,30.231 C474.314,31.774 494.219,30.453 494.257,30.458 C501.502,31.65 504.157,33.923 506.167,44.543 C507.112,49.458 504.989,53.661 505.019,61.46 C505.049,68.39 507.022,76.474 506.452,79.248 C504.442,88.904 493.829,90.436 493.829,101.623 C516.884,129.179 518.167,136.19 523.379,150.228 C529.514,166.755 536.992,184.759 539.444,201.212 C541.424,214.478 542.572,227.853 544.349,241.142 C545.639,250.793 552.742,278.489 552.307,288.308 C551.902,297.55 547.882,297.199 542.182,299.108 C536.474,301.025 529.072,305.201 519.974,308.426 C506.039,313.364 492.907,308.558 479.407,302.483 C464.167,295.622 438.629,292.331 429.742,276.991" fill="#4168A3" id="path6300"/>
    <path d="M385.584,43.283 C390.92,39.281 401.688,24.536 408.771,26.616 C401.939,37.783 390.983,46.658 392.113,63.671 C379.313,72.15 375.042,51.188 385.584,43.283" fill="#FFFFFE" id="path6302"/>
    <path d="M399.084,62.858 C399.084,49.358 417.68,28.531 423.382,25.058 C429.457,25.058 431.992,25.367 435.532,26.408 C418.658,29.108 403.355,53.946 404.483,70.958 C391.685,79.44 388.542,70.763 399.084,62.858" fill="#FFFFFE" id="path6304"/>
    <path d="M493.139,101.333 C490.927,100.664 474.292,91.875 471.982,89.634 C469.469,87.185 461.204,63.918 461.602,63.934 C468.637,64.282 475.484,68.738 480.914,71.786 C484.199,73.631 490.522,83.941 491.444,86.531 C493.679,86.129 496.889,87.395 499.102,86.879 C498.367,94.22 494.279,95.596 493.139,101.333" fill="#36578D" id="path6306"/>
    <path d="M444.967,288.667 C437.482,285.065 431.249,279.591 429.742,276.991 C426.479,271.359 419.381,265.78 410.537,261.509 C398.783,255.834 385.109,251.6 384.635,244.08 C383.675,228.845 423.539,213.815 433.867,215.223 C438.104,225.459 426.682,239.813 440.189,243.682 C452.737,247.275 453.839,243.094 457.964,256.541 C460.934,266.202 456.839,266.803 461.414,280.635 C464.084,288.704 474.029,293.26 477.307,303.432 C477.757,300.732 459.127,295.469 444.967,288.667" fill="#36578D" id="path6308"/>
    <path d="M517.882,172.883 C512.339,166.76 479.407,133.733 475.357,131.708 C473.332,138.458 474.007,168.158 474.007,168.158 L455.782,160.058 C455.782,160.058 459.832,112.133 464.557,104.708 C469.282,106.058 476.707,116.291 493.582,130.358 C505.852,140.588 530.354,170.504 530.707,170.858 C536.107,183.683 538.694,195.749 539.849,202.251 C533.407,189.083 523.432,179.006 517.882,172.883" fill="#FFFFFE" id="path6310"/>
    <path d="M429.742,276.991 C419.402,259.146 393.552,259.367 381.344,242.72 C371.166,228.834 362.069,214.754 356.986,198.014 C350.984,178.262 350.389,175.958 353.184,168.385 C354.872,163.818 356.401,143.378 358.136,139.581 C361.278,132.697 354.375,123.155 357.065,117.849 C363.979,104.204 369.874,106.57 378.153,95.891 C388.906,82.032 373.643,62.985 382.884,49.131 C394.364,31.922 404.597,24.831 417.983,24.831 C424.754,24.831 429.554,24.017 437.332,27.083 C444.179,29.783 455.669,29.815 459.389,30.231 C472.964,31.774 493.544,30.453 493.582,30.458 C500.827,31.65 504.142,33.348 506.744,45.97 C507.479,49.564 505.222,55.802 505.019,60.316 C504.697,67.462 507.494,74.491 506.744,78.104 C504.734,87.759 493.634,94.003 493.544,101.623 C516.599,129.179 518.167,136.19 523.379,150.228 C529.514,166.755 536.992,184.759 539.444,201.215 C541.394,214.285 542.542,227.463 544.274,240.563 C545.962,253.327 555.269,278.847 552.307,291.683 C550.034,301.555 543.104,294.357 536.107,301.133 C528.014,308.975 515.647,310.591 504.382,309.233 C499.589,308.656 488.039,308.806 484.132,305.858 C480.914,303.43 474.937,301.571 471.667,299.73 C460.769,293.592 436.102,287.976 429.742,276.991 z" fill-opacity="0" stroke="#1A1919" stroke-width="2.126" stroke-linecap="round" stroke-linejoin="round" id="path6312"/>
    <path d="M378.412,152.493 C383.385,150.529 393.478,137.768 396.384,135.083 C407.571,124.757 412.742,114.949 414.361,97.415 C414.935,91.192 411.233,73.888 404.415,69.877 C398.261,66.26 392.181,67.583 384.534,76 C373.686,87.938 379.298,101.494 370.406,113.889 C363.894,122.965 358.141,145.229 362.729,152.881 C369.347,163.928 366.458,157.216 378.412,152.493" fill="#375F9D" id="path6314"/>
    <path d="M378.412,152.493 C383.385,150.529 393.478,137.768 396.384,135.083 C407.571,124.757 412.742,114.949 414.361,97.415 C414.935,91.192 411.233,73.888 404.415,69.877 C398.261,66.26 392.181,67.583 384.534,76 C373.686,87.938 379.298,101.494 370.406,113.889 C363.894,122.965 358.141,145.229 362.729,152.881 C369.347,163.928 366.458,157.216 378.412,152.493 z M458.737,59.934 C466.919,69.017 465.457,86.346 476.032,92.785 C482.954,96.998 494.399,101.765 498.989,108.505 M334.806,190.75 C341.087,186.752 334.257,194.167 351.834,175.135" fill-opacity="0" stroke="#1A1919" stroke-width="2.126" stroke-linecap="round" stroke-linejoin="round" id="path6316"/>
    <path d="M384.793,461.79 C381.307,462.165 385.934,465.097 385.858,462.534 C385.763,459.249 383.316,453.366 385.584,447.608 C388.007,445.493 406.272,442.121 412.747,444.161 C413.207,444.528 417.087,456.497 416.417,451.466 C416.127,454.133 399.59,452.267 397.749,454.176 C394.791,457.253 390.53,461.179 385.874,461.81" fill="#FFFFFE" id="path6318"/>
    <path d="M384.793,461.79 C381.307,462.165 385.934,465.097 385.858,462.534 C385.763,459.249 383.316,453.366 385.584,447.608 C388.007,445.493 406.272,442.121 412.747,444.161 C413.207,444.528 417.087,456.497 416.417,451.466 C416.127,454.133 399.59,452.267 397.749,454.176 C394.791,457.253 390.53,461.179 385.874,461.81" fill-opacity="0" stroke="#1A1919" stroke-width="2.126" stroke-linecap="round" stroke-linejoin="round" id="path6320"/>
    <path d="M422.174,481.229 C422.624,480.168 423.059,479.103 423.494,478.04 C424.822,474.722 429.044,475.9 429.614,472.448 C430.297,468.372 431.902,461.144 429.884,457.242 C427.717,453.079 421.117,448.433 414.316,447.326 C401.072,445.169 392.381,446.11 381.197,456.045 C372.938,463.388 367.246,472.833 366.204,486.096 C365.561,494.37 366.573,498.71 368.024,506.889 C368.567,509.948 373.196,525.022 374.187,527.271 C378.27,536.573 381.962,538.743 385.043,542.664 C390.61,549.746 392.671,546.165 398.042,541.14 C400.65,538.703 406.223,534.928 406.193,531.3 C406.18,529.76 405.053,528.159 404.905,526.569 C404.734,524.65 405.18,522.701 405.204,520.784 C405.264,515.885 407.948,513.096 409.515,508.787 C411.813,502.47 415.026,496.532 417.989,490.394 C419.453,487.378 420.854,484.308 422.174,481.229" fill="#FFFFFE" id="path6322"/>
    <path d="M422.174,481.229 C422.624,480.168 423.059,479.103 423.494,478.04 C424.822,474.722 429.044,475.9 429.614,472.448 C430.297,468.372 431.902,461.144 429.884,457.242 C427.717,453.079 421.117,448.433 414.316,447.326 C401.072,445.169 392.381,446.11 381.197,456.045 C372.938,463.388 367.246,472.833 366.204,486.096 C365.561,494.37 366.573,498.71 368.024,506.889 C368.567,509.948 373.196,525.022 374.187,527.271 C378.27,536.573 381.962,538.743 385.043,542.664 C390.61,549.746 392.671,546.165 398.042,541.14 C400.65,538.703 406.223,534.928 406.193,531.3 C406.18,529.76 405.053,528.159 404.905,526.569 C404.734,524.65 405.18,522.701 405.204,520.784 C405.264,515.885 407.948,513.096 409.515,508.787 C411.813,502.47 415.026,496.532 417.989,490.394 C419.453,487.378 420.854,484.308 422.174,481.229 z" fill-opacity="0" stroke="#1A1919" stroke-width="2.126" stroke-linecap="round" stroke-linejoin="round" id="path6324"/>
    <path d="M415.015,543.513 C406.694,554.372 394.97,557.16 383.401,543.605 C377.046,536.162 374.402,525.241 373.79,516.458 C373.181,507.638 374.291,495.082 378.244,483.635 C381.816,473.282 389.608,465.498 397.022,459.824 C402.212,455.866 408.964,453.641 415.026,453.68 C422.054,453.722 428.152,456.813 429.772,463.757 C432.397,475.074 421.297,490.346 419.36,501.244 C417.785,510.132 419.645,517.523 419.482,526.353 C419.376,531.775 419.252,537.973 415.015,543.513" fill="#616261" id="path6326"/>
    <path d="M415.015,543.513 C406.694,554.372 394.97,557.16 383.401,543.605 C377.046,536.162 374.402,525.241 373.79,516.458 C373.181,507.638 374.291,495.082 378.244,483.635 C381.816,473.282 389.608,465.498 397.022,459.824 C402.212,455.866 408.964,453.641 415.026,453.68 C422.054,453.722 428.152,456.813 429.772,463.757 C432.397,475.074 421.297,490.346 419.36,501.244 C417.785,510.132 419.645,517.523 419.482,526.353 C419.376,531.775 419.252,537.973 415.015,543.513 z" fill-opacity="0" stroke="#1A1919" stroke-width="2.126" stroke-linecap="round" stroke-linejoin="round" id="path6328"/>
    <path d="M402.701,460.889 C402.195,458.705 407.12,456.143 409.256,458.102 C413.372,462.671 407.753,466.526 402.701,460.889" fill="#949493" id="path6330"/>
    <path d="M402.701,460.889 C402.195,458.705 407.12,456.143 409.256,458.102 C413.372,462.671 407.753,466.526 402.701,460.889 z" fill-opacity="0" stroke="#1A1919" stroke-width="2.126" stroke-linecap="round" stroke-linejoin="round" id="path6332"/>
    <path d="M420.478,467.95 C419.969,465.772 423.277,462.935 425.849,463.541 C429.959,468.111 426.622,473.366 420.478,467.95" fill="#949493" id="path6334"/>
    <path d="M420.478,467.95 C419.969,465.772 423.277,462.935 425.849,463.541 C429.959,468.111 426.622,473.366 420.478,467.95 z" fill-opacity="0" stroke="#1A1919" stroke-width="2.126" stroke-linecap="round" stroke-linejoin="round" id="path6336"/>
    <path d="M420.04,477.841 C419.534,475.662 422.842,472.82 425.407,473.435 C429.524,478.001 426.187,483.256 420.04,477.841" fill="#898A89" id="path6338"/>
    <path d="M420.04,477.841 C419.534,475.662 422.842,472.82 425.407,473.435 C429.524,478.001 426.187,483.256 420.04,477.841 z" fill-opacity="0" stroke="#1A1919" stroke-width="2.126" stroke-linecap="round" stroke-linejoin="round" id="path6340"/>
    <path d="M412.061,500.15 C411.55,497.969 413.372,494.782 415.94,495.393 C420.056,499.965 418.5,504.131 412.061,500.15" fill="#757674" id="path6342"/>
    <path d="M412.061,500.15 C411.55,497.969 413.372,494.782 415.94,495.393 C420.056,499.965 418.5,504.131 412.061,500.15 z" fill-opacity="0" stroke="#1A1919" stroke-width="2.126" stroke-linecap="round" stroke-linejoin="round" id="path6344"/>
    <path d="M381.188,530.773 C380.68,528.595 383.989,525.757 386.554,526.37 C390.673,530.936 387.335,536.193 381.188,530.773" fill="#757674" id="path6346"/>
    <path d="M381.188,530.773 C380.68,528.595 383.989,525.757 386.554,526.37 C390.673,530.936 387.335,536.193 381.188,530.773 z" fill-opacity="0" stroke="#1A1919" stroke-width="2.126" stroke-linecap="round" stroke-linejoin="round" id="path6348"/>
    <path d="M388.55,544.425 C388.046,542.243 391.352,539.4 393.919,540.011 C398.034,544.583 394.697,549.836 388.55,544.425" fill="#616261" id="path6350"/>
    <path d="M388.55,544.425 C388.046,542.243 391.352,539.4 393.919,540.011 C398.034,544.583 394.697,549.836 388.55,544.425 z" fill-opacity="0" stroke="#1A1919" stroke-width="2.126" stroke-linecap="round" stroke-linejoin="round" id="path6352"/>
    <path d="M410.258,527.651 C408.122,524.711 413.059,522.63 415.626,523.242 C419.74,527.814 416.402,533.061 410.258,527.651" fill="#616261" id="path6354"/>
    <path d="M410.258,527.651 C408.122,524.711 413.059,522.63 415.626,523.242 C419.74,527.814 416.402,533.061 410.258,527.651 z" fill-opacity="0" stroke="#1A1919" stroke-width="2.126" stroke-linecap="round" stroke-linejoin="round" id="path6356"/>
    <path d="M410.627,538.034 C410.119,535.85 413.428,533.014 415.991,533.626 C420.109,538.197 416.771,543.444 410.627,538.034" fill="#757674" id="path6358"/>
    <path d="M410.627,538.034 C410.119,535.85 413.428,533.014 415.991,533.626 C420.109,538.197 416.771,543.444 410.627,538.034 z" fill-opacity="0" stroke="#1A1919" stroke-width="2.126" stroke-linecap="round" stroke-linejoin="round" id="path6360"/>
    <path d="M415.01,487.172 C414.498,484.991 417.808,482.152 420.378,482.76 C424.492,487.333 421.154,492.587 415.01,487.172" fill="#757674" id="path6362"/>
    <path d="M415.01,487.172 C414.498,484.991 417.808,482.152 420.378,482.76 C424.492,487.333 421.154,492.587 415.01,487.172 z" fill-opacity="0" stroke="#1A1919" stroke-width="2.126" stroke-linecap="round" stroke-linejoin="round" id="path6364"/>
    <path d="M394.163,468.704 C392.579,466.031 396.152,463.436 398.72,464.042 C404.483,467.681 399.058,473.018 394.163,468.704" fill="#949493" id="path6366"/>
    <path d="M394.163,468.704 C392.579,466.031 396.152,463.436 398.72,464.042 C404.483,467.681 399.058,473.018 394.163,468.704 z" fill-opacity="0" stroke="#1A1919" stroke-width="2.126" stroke-linecap="round" stroke-linejoin="round" id="path6368"/>
    <path d="M385.288,480.142 C383.965,478.19 386.76,473.165 389.714,475.148 C395.342,478.866 390.915,484.34 385.288,480.142" fill="#757674" id="path6370"/>
    <path d="M385.288,480.142 C383.965,478.19 386.76,473.165 389.714,475.148 C395.342,478.866 390.915,484.34 385.288,480.142 z" fill-opacity="0" stroke="#1A1919" stroke-width="2.126" stroke-linecap="round" stroke-linejoin="round" id="path6372"/>
    <path d="M380.732,492.862 C380.225,490.679 382.061,486.523 384.629,487.135 C388.742,491.704 386.897,497.067 380.732,492.862" fill="#757674" id="path6374"/>
    <path d="M380.732,492.862 C380.225,490.679 382.061,486.523 384.629,487.135 C388.742,491.704 386.897,497.067 380.732,492.862 z M486.502,533.509 C486.502,521.563 485.317,501.774 498.209,495.983 M520.927,510.443 C524.722,523.179 523.679,545.9 508.537,551.069 M501.652,401.89 C505.769,406.111 525.607,432.227 540.067,425.341" fill-opacity="0" stroke="#1A1919" stroke-width="2.126" stroke-linecap="round" stroke-linejoin="round" id="path6376"/>
    <path d="M130.885,336.914 C129.221,340.278 129.192,340.779 125.384,347.479 C122.45,352.649 118.236,360.668 123.009,362.216 C132.491,365.285 139.715,365.738 142.014,359.932 C144.314,354.121 147.92,358.321 133.719,353.459 C142.383,343.996 147.852,341.95 150.365,339.645" fill="#D89D91" id="path6378"/>
    <path d="M130.885,336.914 C129.221,340.278 129.192,340.779 125.384,347.479 C122.45,352.649 118.236,360.668 123.009,362.216 C132.491,365.285 139.715,365.738 142.014,359.932 C144.314,354.121 147.92,358.321 133.719,353.459 C142.383,343.996 147.852,341.95 150.365,339.645" fill-opacity="0" stroke="#1A1919" stroke-width="2.126" stroke-linecap="round" stroke-linejoin="round" id="path6380"/>
    <path d="M143.232,340.157 C137.943,345.836 134.547,348.766 131.863,354.302 C129.452,359.3 137.461,363.122 142.183,364.91 C147.923,366.007 151.13,358.213 152.44,355.628 C153.753,353.042 148.867,350.936 143.259,355.539 C145.795,353.045 147.815,350.108 151.37,349.612 C156.036,348.953 166.045,347.049 172.191,345.454 C189.146,341.069 179.63,330.032 182.801,318.846" fill="#D89D91" id="path6382"/>
    <path d="M143.232,340.157 C137.943,345.836 134.547,348.766 131.863,354.302 C129.452,359.3 137.461,363.122 142.183,364.91 C147.923,366.007 151.13,358.213 152.44,355.628 C153.753,353.042 148.867,350.936 143.259,355.539 C145.795,353.045 147.815,350.108 151.37,349.612 C156.036,348.953 166.045,347.049 172.191,345.454 C189.146,341.069 179.63,330.032 182.801,318.846 M510.187,687.243 C510.202,687.191 510.202,687.138 510.217,687.086 C511.754,677.216 512.032,665.119 515.422,655.716 C520.552,641.509 528.749,621.135 531.944,596.506 C534.277,578.558 534.562,558.107 532.634,540.737 C522.997,564.833 489.262,575.164 474.112,541.43 C472.739,575.164 473.204,576.759 474.802,597.882 C476.182,616.128 479.639,629.768 477.554,651.587 C476.939,658.036 471.149,661.715 469.987,668.111 C467.422,682.151 466.244,694.548 462.982,707.486 C459.997,719.313 450.322,729.491 448.169,741.678 C447.037,748.091 449.969,756.753 455.437,759.446 C459.299,761.343 465.532,761.448 468.847,758.486 C471.449,756.153 472.469,752.276 474.202,749.366 C477.262,744.206 480.464,740.561 484.657,736.578 C489.952,731.553 492.884,724.173 497.969,718.713 C500.039,716.493 502.184,714.213 504.127,711.918 C510.772,704.043 508.814,696.341 510.187,687.243 z" fill-opacity="0" stroke="#1A1919" stroke-width="2.126" stroke-linecap="round" stroke-linejoin="round" id="path6384"/>
    <path d="M366.932,118.214 C367.391,117.723 367.767,117.301 368.039,116.974 C373.803,110.005 381.896,104.197 385.31,95.58 C388.131,88.456 387.163,78.301 397.733,78.386 C405.27,78.446 405.533,85.367 405.834,91.883 C406.414,104.437 406.529,109.94 400.434,120.233 C396.527,126.827 390.151,136.396 385.584,141.385 C380.176,147.291 371.182,153.081 367.586,143.631 C365.363,140.979 357.081,135.094 356.517,133.074 C355.598,129.776 363.482,121.931 366.932,118.214" fill="#D89D91" id="path6386"/>
    <path d="M366.932,118.214 C367.391,117.723 367.767,117.301 368.039,116.974 C373.803,110.005 381.896,104.197 385.31,95.58 C388.131,88.456 387.163,78.301 397.733,78.386 C405.27,78.446 405.533,85.367 405.834,91.883 C406.414,104.437 406.529,109.94 400.434,120.233 C396.527,126.827 390.151,136.396 385.584,141.385 C380.176,147.291 371.182,153.081 367.586,143.631 C365.363,140.979 357.081,135.094 356.517,133.074 C355.598,129.776 363.482,121.931 366.932,118.214 z" fill-opacity="0" stroke="#1A1919" stroke-width="2.126" stroke-linecap="round" stroke-linejoin="round" id="path6388"/>
    <path d="M402.126,235.115 C412.339,231.848 430.687,228.861 434.534,216.827 C436.274,211.39 434.654,204.837 434.639,199.266 C434.617,190.233 435.944,181.241 435.104,172.208 C433.792,158.06 428.609,142.927 419.276,132.072 C414.973,127.067 421.582,126.445 415.959,127.658 C409.862,128.972 395.482,135.531 393.009,136.433 C387.996,138.257 383.559,143.537 378.386,145.883 C369.015,150.139 359.573,151.615 356.559,153.983 C335.135,170.813 343.686,168.659 338.334,181.658 C316.913,196.961 299.363,205.776 286.358,218.783 C296.483,237.683 309.34,259.383 336.309,271.433 C345.748,262.268 372.695,252.992 385.294,248.884 C397.523,244.9 389.781,239.065 402.126,235.115" fill="#4168A3" id="path6390"/>
    <path d="M368.482,163.884 C374.609,160.654 384.945,151.626 383.559,143.183 C380.247,145.187 378.497,145.235 374.783,146.558 C371.184,161.856 356.785,164.783 349.134,167.035 C342.911,170.863 339.246,172.733 338.853,180.477 C338.832,180.904 349.481,173.69 350.325,173.023 C353.574,170.444 365.879,165.257 368.482,163.884" fill="#FFFFFE" id="path6392"/>
    <path d="M400.434,133.733 C397.059,137.108 395.261,135.531 391.658,139.133 C392.558,146.785 385.136,156.683 379.736,161.635 C377.648,163.544 362.576,173.98 355.436,176.933 C349.655,179.322 342.21,182.858 340.132,184.134 C333.909,187.965 338.782,188.635 340.132,192.685 C340.269,193.091 357.144,183.646 358.136,183.235 C363.535,180.983 381.745,168.622 384.682,165.685 C394.583,155.784 400.434,149.485 400.434,133.733" fill="#FFFFFE" id="path6394"/>
    <path d="M424.282,112.133 C418.434,123.835 412.961,124.868 397.059,135.083 C384.44,143.189 379.061,145.656 371.408,147.908 C345.274,155.597 343.686,168.659 338.334,181.658 C316.913,196.961 298.688,205.776 285.684,218.783 C299.459,238.674 307.316,256.683 334.283,268.733 C343.723,259.568 372.695,252.992 385.294,248.884 C397.523,244.9 389.781,239.065 402.126,235.115 C421.252,228.995 428.549,228.497 438.847,212.165" fill-opacity="0" stroke="#1A1919" stroke-width="2.126" stroke-linecap="round" stroke-linejoin="round" id="path6396"/>
    <path d="M605.984,132.193 C611.039,133.683 614.759,136.037 617.594,133.544 C620.437,131.044 620.722,124.91 615.967,122.97 C613.424,121.934 607.237,117.438 604.649,118.061 C599.572,119.284 599.639,130.327 605.984,132.193" fill="#D89D91" id="path6398"/>
    <path d="M605.984,132.193 C611.039,133.683 614.759,136.037 617.594,133.544 C620.437,131.044 620.722,124.91 615.967,122.97 C613.424,121.934 607.237,117.438 604.649,118.061 C599.572,119.284 599.639,130.327 605.984,132.193 z" fill-opacity="0" stroke="#1A1919" stroke-width="2.126" stroke-linecap="round" stroke-linejoin="round" id="path6400"/>
    <path d="M576.944,141.158 C582.449,143.489 587.774,145.124 593.782,144.995 C597.704,144.91 607.972,145.324 610.507,141.551 C614.054,136.249 603.112,133.316 599.557,134.071" fill="#D89D91" id="path6402"/>
    <path d="M576.944,141.158 C582.449,143.489 587.774,145.124 593.782,144.995 C597.704,144.91 607.972,145.324 610.507,141.551 C614.054,136.249 603.112,133.316 599.557,134.071" fill-opacity="0" stroke="#1A1919" stroke-width="2.126" stroke-linecap="round" stroke-linejoin="round" id="path6404"/>
    <path d="M585.382,84.458 C580.612,84.848 577.282,85.808 573.232,91.883" fill="#D89D91" id="path6406"/>
    <path d="M585.382,84.458 C580.612,84.848 577.282,85.808 573.232,91.883" fill-opacity="0" stroke="#1A1919" stroke-width="2.126" stroke-linecap="round" stroke-linejoin="round" id="path6408"/>
    <path d="M601.139,95.933 C604.282,103.131 603.134,116.025 594.389,118.883" fill="#D89D91" id="path6410"/>
    <path d="M601.139,95.933 C604.282,103.131 603.134,116.025 594.389,118.883" fill-opacity="0" stroke="#1A1919" stroke-width="2.126" stroke-linecap="round" stroke-linejoin="round" id="path6412"/>
    <path d="M593.032,110.335 C600.539,112.871 604.844,125.731 604.957,131.708 C609.344,127.996 615.194,126.533 620.144,128.333 C622.282,129.108 624.014,132.204 624.194,135.758 C624.382,139.334 612.382,143.52 605.632,143.183 C598.882,142.846 587.384,139.17 585.382,138.121" fill="#D89D91" id="path6414"/>
    <path d="M593.032,110.335 C600.539,112.871 604.844,125.731 604.957,131.708 C609.344,127.996 615.194,126.533 620.144,128.333 C622.282,129.108 624.014,132.204 624.194,135.758 C624.382,139.334 612.382,143.52 605.632,143.183 C598.882,142.846 587.384,139.17 585.382,138.121" fill-opacity="0" stroke="#1A1919" stroke-width="2.126" stroke-linecap="round" stroke-linejoin="round" id="path6416"/>
    <path d="M566.482,70.958 C571.882,77.708 573.232,79.733 577.282,85.808 C581.332,102.683 573.232,110.783 559.057,113.483 C554.332,106.733 548.932,102.683 542.857,97.283 C557.707,99.308 566.482,87.158 566.482,70.958" fill="#375F9D" id="path6418"/>
    <path d="M566.482,70.958 C571.882,77.708 573.232,79.733 577.282,85.808 C581.332,102.683 573.232,110.783 559.057,113.483 C554.332,106.733 548.932,102.683 542.857,97.283 C557.707,99.308 566.482,87.158 566.482,70.958 z" fill-opacity="0" stroke="#1A1919" stroke-width="2.126" stroke-linecap="round" stroke-linejoin="round" id="path6420"/>
    <path d="M482.879,753.588 C477.682,758.328 469.949,760.773 462.922,760.338 C455.459,759.873 449.324,758.066 449.834,749.231 C450.194,743.126 452.887,737.801 455.962,732.738 C460.132,725.876 464.632,716.628 466.304,708.753 C467.377,703.728 467.939,697.293 470.722,692.733 C472.702,689.501 479.294,690.183 482.782,690.828 C487.642,691.736 496.972,697.706 498.082,702.303 C500.159,710.936 491.504,714.978 488.887,722.756 C486.929,728.583 488.497,733.203 488.902,739.016 C489.329,745.031 486.839,749.981 482.879,753.588" fill="#FFFFFE" id="path6422"/>
    <path d="M482.879,753.588 C477.682,758.328 469.949,760.773 462.922,760.338 C455.459,759.873 449.324,758.066 449.834,749.231 C450.194,743.126 452.887,737.801 455.962,732.738 C460.132,725.876 464.632,716.628 466.304,708.753 C467.377,703.728 467.939,697.293 470.722,692.733 C472.702,689.501 479.294,690.183 482.782,690.828 C487.642,691.736 496.972,697.706 498.082,702.303 C500.159,710.936 491.504,714.978 488.887,722.756 C486.929,728.583 488.497,733.203 488.902,739.016 C489.329,745.031 486.839,749.981 482.879,753.588 z" fill-opacity="0" stroke="#1A1919" stroke-width="2.126" stroke-linecap="round" stroke-linejoin="round" id="path6424"/>
    <path d="M483.022,716.621 C483.607,713.088 483.892,710.568 487.732,708.836 C491.137,707.298 494.902,708.078 498.532,707.486 C503.422,706.676 505.124,701.148 507.007,697.241 C508.694,693.731 509.137,686.223 511.874,684.693 C523.349,705.108 517.589,719.073 511.507,740.036 C509.752,746.088 505.784,754.863 501.007,765.513 C498.847,770.313 487.942,782.823 483.562,785.598 C470.744,793.736 467.167,797.748 446.534,790.368 C430.739,777.581 436.859,755.036 443.129,740.396 C450.727,722.658 459.539,705.461 467.099,687.693 C463.747,696.176 472.162,701.928 471.082,710.186 C470.399,715.383 469.514,714.198 468.382,719.178 C467.497,723.078 464.167,726.843 462.982,730.436 C461.684,734.373 461.752,736.953 460.732,738.536 C459.367,740.651 457.912,745.091 457.574,747.536 C456.839,752.913 461.204,756.273 466.027,754.893 C470.467,753.626 473.887,748.788 476.032,744.993 C477.764,741.933 478.889,738.911 479.182,735.386 C479.482,731.868 480.434,731.178 481.432,727.736 C482.197,725.111 482.339,720.108 482.887,717.386 C482.939,717.131 482.977,716.876 483.022,716.621" fill="#FFFFFE" id="path6426"/>
    <path d="M465.704,712.878 C465.652,717.708 459.614,722.988 458.482,727.736 C457.259,732.858 459.292,736.743 456.794,741.198 C452.174,749.456 449.152,759.461 448.012,768.843 C447.217,775.361 448.559,792.123 457.237,794.103 C448.814,792.183 440.654,786.371 438.209,778.721 C433.964,765.408 440.152,747.356 443.129,740.396 C446.242,733.151 457.154,711.108 467.227,687.401 C465.157,695.651 465.802,704.276 465.704,712.878" fill="#DEDFDE" id="path6428"/>
    <path d="M494.017,708.483 C502.822,708.911 502.942,705.693 507.007,697.241 C508.694,693.731 509.137,686.223 511.874,684.693 C521.624,703.226 519.404,709.661 513.944,732.746 C512.489,738.881 505.784,754.863 501.007,765.513 C498.847,770.313 487.942,782.823 483.562,785.598 C470.744,793.736 462.914,798.356 446.534,790.368 C430.739,777.581 436.859,755.036 443.129,740.396 C446.242,733.143 449.624,726.003 452.872,718.818 C455.414,713.186 457.792,707.456 460.432,701.868 C461.954,698.628 464.414,692.598 466.582,687.236 C464.332,696.686 469.972,700.646 470.632,707.936 C471.352,715.788 469.387,721.968 466.139,729.536 C463.597,735.438 459.907,742.796 458.519,748.466 C457.522,752.546 459.404,756.086 464.354,755.471 C468.509,754.953 471.547,749.831 473.452,746.546 C477.742,739.173 480.644,730.293 481.912,721.856 C482.932,715.046 483.704,707.598 492.232,708.356 C492.862,708.416 493.454,708.453 494.017,708.483 z" fill-opacity="0" stroke="#1A1919" stroke-width="2.126" stroke-linecap="round" stroke-linejoin="round" id="path6430"/>
    <path d="M486.607,720.528 C488.407,722.111 488.182,722.103 486.832,723.686 C482.782,723.011 461.917,731.816 460.507,732.011 C459.554,730.421 459.607,731.051 458.932,729.311 C465.659,725.096 479.032,721.526 486.607,720.528" fill="#FFFFFE" id="path6432"/>
    <path d="M486.607,720.528 C488.407,722.111 488.182,722.103 486.832,723.686 C482.782,723.011 461.917,731.816 460.507,732.011 C459.554,730.421 459.607,731.051 458.932,729.311 C465.659,725.096 479.032,721.526 486.607,720.528 z" fill-opacity="0" stroke="#1A1919" stroke-width="2.126" stroke-linecap="round" stroke-linejoin="round" id="path6434"/>
    <path d="M483.457,731.786 C482.902,733.856 483.179,735.828 480.532,736.061 C477.382,727.961 465.007,720.986 461.962,719.726 C462.554,717.963 462.854,717.806 463.739,716.156 C471.314,718.533 479.182,726.611 483.457,731.786" fill="#FFFFFE" id="path6436"/>
    <path d="M483.457,731.786 C482.902,733.856 483.179,735.828 480.532,736.061 C477.382,727.961 465.007,720.986 461.962,719.726 C462.554,717.963 462.854,717.806 463.739,716.156 C471.314,718.533 479.182,726.611 483.457,731.786 z" fill-opacity="0" stroke="#1A1919" stroke-width="2.126" stroke-linecap="round" stroke-linejoin="round" id="path6438"/>
    <path d="M480.982,733.578 C482.782,735.161 482.782,736.503 481.432,738.078 C477.382,737.403 456.292,744.866 454.882,745.061 C453.929,743.463 453.982,744.101 453.314,742.361 C460.034,738.146 473.399,734.576 480.982,733.578" fill="#FFFFFE" id="path6440"/>
    <path d="M480.982,733.578 C482.782,735.161 482.782,736.503 481.432,738.078 C477.382,737.403 456.292,744.866 454.882,745.061 C453.929,743.463 453.982,744.101 453.314,742.361 C460.034,738.146 473.399,734.576 480.982,733.578 z" fill-opacity="0" stroke="#1A1919" stroke-width="2.126" stroke-linecap="round" stroke-linejoin="round" id="path6442"/>
    <path d="M477.832,744.828 C477.277,746.906 477.554,748.878 474.907,749.111 C471.757,741.011 459.389,734.028 456.337,732.768 C456.929,731.013 457.237,730.856 458.114,729.206 C465.689,731.583 473.564,739.653 477.832,744.828" fill="#FFFFFE" id="path6444"/>
    <path d="M477.832,744.828 C477.277,746.906 477.554,748.878 474.907,749.111 C471.757,741.011 459.389,734.028 456.337,732.768 C456.929,731.013 457.237,730.856 458.114,729.206 C465.689,731.583 473.564,739.653 477.832,744.828 z" fill-opacity="0" stroke="#1A1919" stroke-width="2.126" stroke-linecap="round" stroke-linejoin="round" id="path6446"/>
    <path d="M477.157,748.203 C477.554,750.318 477.419,751.136 475.132,752.486 C470.857,750.011 453.097,747.026 451.732,746.636 C451.514,744.791 451.709,744.513 451.799,742.653 C459.652,741.528 469.822,746.043 477.157,748.203" fill="#FFFFFE" id="path6448"/>
    <path d="M477.157,748.203 C477.554,750.318 477.419,751.136 475.132,752.486 C470.857,750.011 453.097,747.026 451.732,746.636 C451.514,744.791 451.709,744.513 451.799,742.653 C459.652,741.528 469.822,746.043 477.157,748.203 z" fill-opacity="0" stroke="#1A1919" stroke-width="2.126" stroke-linecap="round" stroke-linejoin="round" id="path6450"/>
    <path d="M485.047,734.703 C484.634,731.868 483.517,729.491 482.692,726.768 C481.957,724.338 481.274,721.301 480.172,719.073 C479.669,718.061 477.712,716.688 477.644,715.616 C477.892,719.876 478.162,723.776 480.014,727.713 C481.499,730.878 484.582,754.061 483.014,759.903 C482.317,762.476 481.477,765.453 481.912,767.966 C486.704,771.303 487.259,760.443 487.522,757.811 C488.302,749.831 486.172,742.548 485.047,734.703" fill="#FFFFFE" id="path6452"/>
    <path d="M485.047,734.703 C484.634,731.868 483.517,729.491 482.692,726.768 C481.957,724.338 481.274,721.301 480.172,719.073 C479.669,718.061 477.712,716.688 477.644,715.616 C477.892,719.876 478.162,723.776 480.014,727.713 C481.499,730.878 484.582,754.061 483.014,759.903 C482.317,762.476 481.477,765.453 481.912,767.966 C486.704,771.303 487.259,760.443 487.522,757.811 C488.302,749.831 486.172,742.548 485.047,734.703 z" fill-opacity="0" stroke="#1A1919" stroke-width="2.126" stroke-linecap="round" stroke-linejoin="round" id="path6454"/>
    <path d="M458.759,727.556 C460.237,725.096 462.194,723.341 464.009,721.151 C465.629,719.201 467.429,716.666 469.319,715.038 C470.167,714.303 472.514,713.793 472.987,712.826 C471.104,716.666 469.349,720.146 466.109,723.063 C463.514,725.403 450.749,743.786 449.939,749.786 C449.572,752.418 448.829,754.608 447.457,756.761 C441.742,757.976 445.544,749.388 446.332,746.861 C448.709,739.203 454.679,734.343 458.759,727.556" fill="#FFFFFE" id="path6456"/>
    <path d="M458.759,727.556 C460.237,725.096 462.194,723.341 464.009,721.151 C465.629,719.201 467.429,716.666 469.319,715.038 C470.167,714.303 472.514,713.793 472.987,712.826 C471.104,716.666 469.349,720.146 466.109,723.063 C463.514,725.403 450.749,743.786 449.939,749.786 C449.572,752.418 448.829,754.608 447.457,756.761 C441.742,757.976 445.544,749.388 446.332,746.861 C448.709,739.203 454.679,734.343 458.759,727.556 z" fill-opacity="0" stroke="#1A1919" stroke-width="2.126" stroke-linecap="round" stroke-linejoin="round" id="path6458"/>
    <path d="M467.024,720.318 C468.622,719.171 469.544,718.586 471.494,718.428 C472.709,718.338 474.974,718.863 475.597,717.386 C476.482,715.271 472.589,712.256 470.797,711.926 C468.344,711.476 465.007,713.321 462.922,714.423 C457.777,717.153 453.472,721.128 448.672,724.376 C446.257,726.003 444.659,727.773 444.524,730.871 C444.442,732.731 444.577,736.773 446.167,737.801 C448.124,739.068 451.409,737.231 452.594,735.821 C456.907,730.653 457.469,730.706 459.832,726.611 C461.444,723.813 464.182,722.351 467.024,720.318" fill="#FFFFFE" id="path6460"/>
    <path d="M467.024,720.318 C468.622,719.171 469.544,718.586 471.494,718.428 C472.709,718.338 474.974,718.863 475.597,717.386 C476.482,715.271 472.589,712.256 470.797,711.926 C468.344,711.476 465.007,713.321 462.922,714.423 C457.777,717.153 453.472,721.128 448.672,724.376 C446.257,726.003 444.659,727.773 444.524,730.871 C444.442,732.731 444.577,736.773 446.167,737.801 C448.124,739.068 451.409,737.231 452.594,735.821 C456.907,730.653 457.469,730.706 459.832,726.611 C461.444,723.813 464.182,722.351 467.024,720.318 z M448.132,730.653 C448.162,730.886 448.109,731.073 448.169,731.298 C450.787,732.071 452.317,728.141 453.697,726.596 C455.542,724.533 457.934,723.393 459.929,721.646 C462.697,719.208 468.487,714.731 472.657,715.136" fill-opacity="0" stroke="#1A1919" stroke-width="2.126" stroke-linecap="round" stroke-linejoin="round" id="path6462"/>
    <path d="M484.417,717.536 C488.797,718.856 491.834,721.773 495.157,724.811 C500.249,729.453 501.427,735.356 500.279,741.776 C499.477,746.298 498.734,748.728 493.792,749.111 C488.459,749.523 489.629,742.968 488.857,738.536 C487.859,732.761 487.619,727.308 482.354,723.401 C480.757,722.216 476.527,719.996 476.324,717.558 C476.039,714.131 482.504,716.988 484.154,717.461 C484.244,717.483 484.327,717.513 484.417,717.536" fill="#FFFFFE" id="path6464"/>
    <path d="M484.417,717.536 C488.797,718.856 491.834,721.773 495.157,724.811 C500.249,729.453 501.427,735.356 500.279,741.776 C499.477,746.298 498.734,748.728 493.792,749.111 C488.459,749.523 489.629,742.968 488.857,738.536 C487.859,732.761 487.619,727.308 482.354,723.401 C480.757,722.216 476.527,719.996 476.324,717.558 C476.039,714.131 482.504,716.988 484.154,717.461 C484.244,717.483 484.327,717.513 484.417,717.536 z M479.182,716.711 C484.447,720.168 489.194,723.363 492.007,728.861 C493.267,731.313 496.484,738.221 496.057,741.236 C495.862,742.616 495.532,743.838 493.852,743.688 C493.372,742.338 492.374,741.671 492.682,740.111" fill-opacity="0" stroke="#1A1919" stroke-width="2.126" stroke-linecap="round" stroke-linejoin="round" id="path6466"/>
    <path d="M481.657,713.336 C481.522,715.346 478.402,716.943 476.542,715.211 C475.469,714.213 475.822,712.751 476.497,711.671 C477.652,709.833 481.889,709.848 481.657,713.336" fill="#FFFFFE" id="path6468"/>
    <path d="M481.657,713.336 C481.522,715.346 478.402,716.943 476.542,715.211 C475.469,714.213 475.822,712.751 476.497,711.671 C477.652,709.833 481.889,709.848 481.657,713.336 z" fill-opacity="0" stroke="#1A1919" stroke-width="2.126" stroke-linecap="round" stroke-linejoin="round" id="path6470"/>
    <path d="M476.542,709.998 C477.809,712.008 478.184,715.503 477.674,717.198 C476.707,720.378 473.527,720.971 472.582,717.491 C472.049,715.503 471.029,707.013 475.072,708.641 C475.649,708.881 476.137,709.361 476.542,709.998" fill="#FFFFFE" id="path6472"/>
    <path d="M476.542,709.998 C477.809,712.008 478.184,715.503 477.674,717.198 C476.707,720.378 473.527,720.971 472.582,717.491 C472.049,715.503 471.029,707.013 475.072,708.641 C475.649,708.881 476.137,709.361 476.542,709.998 z" fill-opacity="0" stroke="#1A1919" stroke-width="2.126" stroke-linecap="round" stroke-linejoin="round" id="path6474"/>
    <path d="M372.084,475.62 C374.82,477.395 376.664,473.321 379.846,466.508 C380.828,464.407 380.184,453.346 387.947,451.32 C382.86,444.185 370.898,460.182 369.384,463.471 C366.647,469.41 369.866,474.183 372.084,475.62" fill="#FFFFFE" id="path6476"/>
    <path d="M372.084,475.62 C374.82,477.395 376.664,473.321 379.846,466.508 C380.828,464.407 380.184,453.346 387.947,451.32 C382.86,444.185 370.898,460.182 369.384,463.471 C366.647,469.41 369.866,474.183 372.084,475.62 z" fill-opacity="0" stroke="#1A1919" stroke-width="2.126" stroke-linecap="round" stroke-linejoin="round" id="path6478"/>
    <path d="M378.497,452.67 C376.972,455.328 374.829,459.003 374.108,461.783 C373.409,464.48 373.423,466.547 373.772,469.545" fill="#FFFFFE" id="path6480"/>
    <path d="M378.497,452.67 C376.972,455.328 374.829,459.003 374.108,461.783 C373.409,464.48 373.423,466.547 373.772,469.545" fill-opacity="0" stroke="#1A1919" stroke-width="2.126" stroke-linecap="round" stroke-linejoin="round" id="path6482"/>
    <path d="M389.006,81.146 C382.884,84.45 378.422,90.539 376.018,96.659 C372.566,105.436 371.267,116.494 365.144,123.935 C362.75,126.846 352.434,136.333 362.457,137.303 C369.11,137.944 378.195,134.108 381.086,129.235 C386.665,119.822 384.682,106.285 397.623,98.522 C405.615,93.729 399.405,75.541 389.006,81.146" fill="#C28A7E" id="path6484"/>
    <path d="M366.056,138.173 C369.842,133.322 372.928,127.719 375.607,121.504 C379.804,111.761 382.465,99.735 386.934,90.533 C393.465,77.083 402.215,54.329 394.697,40.156 C379.962,12.37 349.002,7.408 320.467,16.742 C305.58,21.609 294.649,36.737 292.191,56.372 C290.098,73.094 299.379,92.363 300.223,97.31 C301.641,105.647 302.796,112.916 305.101,119.105 C307.595,125.813 309.884,128.671 313.607,132.874 C315.347,134.84 320.114,142.733 321.459,144.306 C323.257,149.485 323.816,150.903 326.189,153.086 C328.862,155.544 338.882,156.002 342.833,154.658 C352.889,151.236 360.284,145.577 366.056,138.173" fill="#D89D91" id="path6486"/>
    <path d="M374.108,126.329 C377.519,119.917 379.114,110.973 381.555,104.07 C386.76,89.352 381.985,71.744 378.027,56.799 C374.708,44.277 364.598,26.661 355.44,17.359 C346.629,8.408 330.977,13.306 320.467,16.742 C305.58,21.609 294.649,36.737 292.191,56.372 C290.098,73.094 300.587,95.933 301.43,100.88 C302.854,109.22 304.212,116.5 306.608,122.704 C309.309,129.683 320.473,143.093 321.68,144.306 C322.809,148.356 323.341,150.581 325.282,152.639 C329.099,156.686 338.429,156.002 342.381,154.658 C351.979,151.394 355.884,150.608 363.309,140.483 C363.359,140.414 372.16,129.994 374.108,126.329 z" fill-opacity="0" stroke="#1A1919" stroke-width="2.126" stroke-linecap="round" stroke-linejoin="round" id="path6488"/>
    <path d="M332.934,94.81 C336.34,94.05 338.075,100.231 334.735,101.109 C330.461,102.235 330.355,95.384 332.934,94.81" fill="#1A1919" id="path6490"/>
    <path d="M307.735,99.759 C311.141,98.999 312.965,105.206 309.535,105.61 C305.708,106.058 305.156,100.334 307.735,99.759" fill="#1A1919" id="path6492"/>
    <path d="M299.184,92.558 C299.184,86.483 308.634,85.36 312.684,94.81 C303.908,91.435 299.184,92.558 299.184,92.558" fill="#1A1919" id="path6494"/>
    <path d="M324.386,90.76 C320.336,77.708 337.886,69.381 341.936,78.831 C333.16,75.456 324.386,90.76 324.386,90.76" fill="#1A1919" id="path6496"/>
    <path d="M315.833,101.106 C318.764,103.427 317.931,114.137 316.059,117.306 C313.358,116.631 311.782,117.76 310.658,119.11 C307.439,124.889 315.157,126.308 318.532,127.21" fill-opacity="0" stroke="#1A1919" stroke-width="2.126" stroke-linecap="round" stroke-linejoin="round" id="path6498"/>
    <path d="M321.074,15.344 C307.283,3.906 288.905,13.589 280.526,21.04 C288.563,20.417 298.114,20.871 305.207,24.233 C288.131,25.316 264.927,39.143 262.027,57.527 C261.294,62.173 260.313,68.358 262.196,72.791 C266.873,64.282 266.499,54.225 276.788,50.698 C267.237,71.406 270.386,97.056 280.136,98.681 C280.163,94.262 280.083,88.018 281.549,84.229 C284.333,100.885 287.767,100.919 293.783,104.26 C294.221,95.503 293.172,76.817 303.572,74.502 C304.91,77.893 299.983,90.96 299.858,94.583 C305.488,92.759 315.273,70.526 316.059,64.883 C319.023,68.324 333.298,79.712 338.334,78.383 C333.608,71.633 329.561,69.276 329.669,64.295 C336.504,70.942 346.75,75.91 352.419,83.783 C352.16,81.365 352.351,78.966 351.839,76.653 C354.653,84.318 360.053,89.89 360.698,98.1 C362.45,94.504 361.806,89.478 363.973,86.372 C364.955,87.965 365.94,90.024 366.671,91.725 C366.309,90.876 369.569,80.682 370.175,79.306 C372.664,73.664 380.669,69.885 384.698,76.505 C388.31,82.449 388.687,89.186 389.714,95.875 C391.896,95.485 393.758,88.128 393.236,85.687 C394.068,89.584 391.721,97.739 398.588,96.292 C396.922,94.789 396.015,92.806 396.925,90.57 C402.707,97.148 407.173,94.596 409.839,86.562 C406.967,86.969 404.758,85.492 402.733,83.873 C408.207,84.74 407.6,77.798 407.653,74.491 C407.471,75.108 406.892,75.826 406.656,76.517 C399.777,77.761 399.839,55.881 398.978,52.417 C397.571,46.732 396.204,41.005 394.259,35.478 C393.873,34.382 386.612,22.324 385.584,22.358 C388.652,22.258 393.9,27.167 396.833,27.758 C395.366,21.593 382.357,14.907 377.579,11.574 C373.803,8.942 364.625,8.318 360.382,6.158 C361.748,6.058 371.135,4.771 372.532,4.808 C362.981,-0.703 349.73,0.987 339.236,3.01 C334.727,3.875 321.232,6.385 321.074,15.344" fill="#29241F" id="path6500"/>
    <path d="M321.074,15.344 C307.283,3.906 288.905,13.589 280.526,21.04 C288.563,20.417 298.114,20.871 305.207,24.233 C288.131,25.316 264.927,39.143 262.027,57.527 C261.294,62.173 260.313,68.358 262.196,72.791 C266.873,64.282 266.499,54.225 276.788,50.698 C267.237,71.406 270.386,97.056 280.136,98.681 C280.163,94.262 280.083,88.018 281.549,84.229 C284.333,100.885 287.767,100.919 293.783,104.26 C294.221,95.503 293.172,76.817 303.572,74.502 C304.91,77.893 299.983,90.96 299.858,94.583 C305.488,92.759 315.273,70.526 316.059,64.883 C319.023,68.324 333.298,79.712 338.334,78.383 C333.608,71.633 329.561,69.276 329.669,64.295 C336.504,70.942 346.75,75.91 352.419,83.783 C352.16,81.365 352.351,78.966 351.839,76.653 C354.653,84.318 360.053,89.89 360.698,98.1 C362.45,94.504 361.806,89.478 363.973,86.372 C364.955,87.965 365.94,90.024 366.671,91.725 C366.309,90.876 369.569,80.682 370.175,79.306 C372.664,73.664 380.669,69.885 384.698,76.505 C388.31,82.449 388.687,89.186 389.714,95.875 C391.896,95.485 393.758,88.128 393.236,85.687 C394.068,89.584 391.721,97.739 398.588,96.292 C396.922,94.789 396.015,92.806 396.925,90.57 C402.707,97.148 407.173,94.596 409.839,86.562 C406.967,86.969 404.758,85.492 402.733,83.873 C408.207,84.74 407.6,77.798 407.653,74.491 C407.471,75.108 406.892,75.826 406.656,76.517 C399.777,77.761 399.839,55.881 398.978,52.417 C397.571,46.732 396.204,41.005 394.259,35.478 C393.873,34.382 386.612,22.324 385.584,22.358 C388.652,22.258 393.9,27.167 396.833,27.758 C395.366,21.593 382.357,14.907 377.579,11.574 C373.803,8.942 364.625,8.318 360.382,6.158 C361.748,6.058 371.135,4.771 372.532,4.808 C362.981,-0.703 349.73,0.987 339.236,3.01 C334.727,3.875 321.232,6.385 321.074,15.344 z" fill-opacity="0" stroke="#1A1919" stroke-width="2.126" stroke-linecap="round" stroke-linejoin="round" id="path6502"/>
    <path d="M372.443,83.066 C367.701,69.751 380.21,56.411 388.03,71.686 C390.799,77.091 390.35,99.641 380.195,100.568" fill="#D89D91" id="path6504"/>
    <path d="M372.443,83.066 C367.701,69.751 380.21,56.411 388.03,71.686 C390.799,77.091 390.35,99.641 380.195,100.568" fill-opacity="0" stroke="#1A1919" stroke-width="2.126" stroke-linecap="round" stroke-linejoin="round" id="path6506"/>
    <path d="M377.895,87.084 C376.598,85.154 379.615,68.727 382.773,74.459" fill="#D89D91" id="path6508"/>
    <path d="M377.895,87.084 C376.598,85.154 379.615,68.727 382.773,74.459" fill-opacity="0" stroke="#1A1919" stroke-width="2.126" stroke-linecap="round" stroke-linejoin="round" id="path6510"/>
    <path d="M378.18,80.772 C386.259,80.856 381.755,91.187 379.039,92.822" fill="#D89D91" id="path6512"/>
    <path d="M378.18,80.772 C386.259,80.856 381.755,91.187 379.039,92.822" fill-opacity="0" stroke="#1A1919" stroke-width="2.126" stroke-linecap="round" stroke-linejoin="round" id="path6514"/>
    <path d="M325.061,137.206 C325.061,130.235 341.951,127.862 345.311,129.333" fill="#D89D91" id="path6516"/>
    <path d="M325.061,136.206 C325.061,129.235 341.951,126.862 345.311,128.333" fill-opacity="0" stroke="#1A1919" stroke-width="2.126" stroke-linecap="round" stroke-linejoin="round" id="path6518"/>
    <path d="M121.658,334.208 C121.658,334.208 110.184,352.433 110.858,356.483" fill="#D89D91" id="path6520"/>
    <path d="M121.658,334.208 C121.658,334.208 110.184,352.433 110.858,356.483" fill-opacity="0" stroke="#1A1919" stroke-width="2.126" stroke-linecap="round" stroke-linejoin="round" id="path6522"/>
    <path d="M335.023,50.066 C334.073,47.465 331.31,44.815 329.044,43.163 C330.866,42.119 333.71,41.924 335.618,42.42 C334.99,40.674 332.94,39.468 331.874,37.806 C333.233,37.404 335.102,37.783 335.373,36.092 C337.083,35.423 338.919,35.126 340.751,35.075 C339.822,34.646 338.88,34.041 338.355,33.114 C342.355,31.258 347.423,30.818 351.309,31.541 C349.991,29.043 345.593,28.549 340.256,28.28 C342.595,26.573 353.567,25.886 360.844,27.398 C356.587,22.185 344.918,21.232 339.046,21.381 C335.611,21.47 320.889,23.57 320.032,26.705 C324.235,26.871 327.725,25.646 331.913,26.481 C329.508,28.654 325.878,29.627 323.627,31.988 C325.603,32.072 327.623,31.821 329.554,32.264 C328.509,33.176 326.683,33.98 325.757,35.285 C326.202,35.304 327.019,35.736 327.516,35.75 C323.216,38.966 317.611,39.934 313.688,43.976 C315.933,43.115 318.97,42.257 321.333,43.059 C321.83,43.227 313.801,51.14 321.045,49.879 C325.64,49.08 331.11,46.526 335.023,50.066" fill="#52483F" id="path6524"/>
  </g>
  <g id="layer2">
    <path d="M143.034,560.054 C148.481,520.948 121.196,484.831 82.09,479.383 C42.985,473.935 6.867,501.22 1.419,540.326 C-4.028,579.431 23.257,615.549 62.362,620.997 C101.468,626.445 137.586,599.16 143.034,560.054" fill="#FFFFFF" id="path7105"/>
    <path d="M74.743,524.265 L74.702,524.226 L47.138,538.953 L47.213,538.986 z" fill="#030000" id="path7107"/>
    <path d="M52.703,569.845 L52.964,569.557 L50.294,557.154 L52.541,569.822 z" fill="#030000" id="path7109"/>
    <path d="M26.856,529.925 L25.78,529.42 L12.864,545.404 L26.846,530.022 z" fill="#030000" id="path7111"/>
    <path d="M36.694,589.151 L37.026,588.751 L25.681,582.549 z" fill="#030000" id="path7113"/>
    <path d="M83.558,574.143 L89.805,561.281 L82.999,574.065 z" fill="#030000" id="path7115"/>
    <path d="M119.968,542.952 L119.893,543.353 L124.657,553.61 L120.106,542.929 z" fill="#030000" id="path7117"/>
    <path d="M93.283,597.403 L105.68,594.062 L93.072,596.928 z" fill="#030000" id="path7119"/>
    <path d="M115.359,604.613 L119.177,591.693 L119.328,591.66 L131.893,569.249 L140.641,562.284 C137.587,579.602 128.265,594.388 115.359,604.613 M93.568,596.317 L83.566,573.871 L90.284,561.593 L98.004,547.093 L119.404,543.599 L124.153,553.825 L130.688,569.159 L118.613,590.694 L105.556,593.529 z M74.425,615.548 L50.097,612.159 L37.088,588.785 L37.026,588.751 L36.694,589.151 L36.551,589.066 L53.428,569.946 L82.444,573.988 L82.374,574.121 L92.759,597.189 z M62.64,619 C55.992,618.074 49.694,616.229 43.854,613.614 L49.523,612.81 L49.503,612.95 L75.298,616.543 L80.48,619.179 C74.677,619.875 68.694,619.844 62.64,619 M25.963,582.079 L14.263,575.065 L8.435,551.756 L13.28,545.76 L27.045,530.618 L46.474,539.546 L49.75,557.307 L52.323,569.504 L36.209,587.776 z M2.939,545.072 L7.269,551.458 L7.239,551.495 L13.309,575.777 L13.453,575.864 L13.337,575.801 L13.458,587.186 C5.761,574.982 1.8,560.342 2.939,545.072 M55.788,482.686 L52.614,487.285 L29.243,501.241 L21.755,502.483 C30.894,492.84 42.705,485.889 55.788,482.686 M77.446,501.244 L74.302,523.809 L47.11,538.342 L27.837,529.655 L30.259,501.908 L52.83,488.462 z M78.573,500.546 L78.459,500.568 L73.903,498.199 z M97.123,546.417 L96.177,548.194 L97.067,546.363 z M78.849,501.627 L106.653,496.144 L124.245,515.182 L118.989,542.537 L97.621,545.586 L75.697,524.254 z M134.44,519.319 L125.232,514.654 L107.356,495.316 L107.372,495.313 L104.789,488.814 C117.695,495.678 128.025,506.439 134.44,519.319 M142.007,531.53 C139.591,522.511 135.5,514.144 129.846,506.661 C124.193,499.177 117.263,492.955 109.248,488.166 C100.949,483.208 91.845,480.012 82.19,478.667 C72.535,477.322 62.905,477.908 53.567,480.409 C44.548,482.825 36.181,486.917 28.697,492.57 C21.214,498.223 14.992,505.153 10.203,513.169 C5.244,521.468 2.048,530.571 0.703,540.226 C-0.642,549.881 -0.055,559.511 2.446,568.85 C4.862,577.868 8.953,586.236 14.606,593.719 C20.26,601.202 27.19,607.424 35.205,612.213 C43.504,617.172 52.608,620.368 62.263,621.713 C71.918,623.058 81.548,622.472 90.886,619.97 C99.905,617.554 108.272,613.463 115.755,607.81 C123.239,602.157 129.461,595.226 134.25,587.211 C139.208,578.912 142.405,569.809 143.75,560.154 C145.095,550.499 144.508,540.868 142.007,531.53" fill="#030000" id="path7121"/>
  </g>
</svg>
